<svg viewBox="0 0 300.000000 225.000000">
<g transform="translate(0,225) scale(0.1,-0.1)"
fill="#ffffff" stroke="none">
<path d="M1113 2157 c-36 -16 -28 -44 32 -111 l55 -63 -177 -177 c-97 -97
-182 -176 -189 -176 -7 0 -10 -8 -6 -22 4 -18 2 -20 -16 -16 -13 4 -22 1 -22
-5 0 -14 -65 -85 -99 -109 -22 -15 -26 -15 -48 -1 -35 23 -52 11 -213 -152
-136 -138 -140 -144 -140 -185 0 -41 4 -47 147 -192 81 -82 157 -151 170 -154
12 -3 32 1 45 10 22 16 26 13 255 -216 128 -128 233 -238 233 -244 0 -7 9 -10
21 -7 18 5 20 3 15 -15 -5 -14 -2 -21 9 -24 10 -2 -1 -20 -40 -61 -61 -64 -71
-102 -32 -116 12 -5 30 -5 40 -2 10 4 69 57 131 119 63 62 120 112 127 112 7
0 52 -38 100 -85 47 -47 95 -85 105 -85 11 0 57 38 104 85 47 46 92 85 100 85
8 0 67 -52 131 -116 93 -93 122 -116 145 -116 15 0 33 7 40 17 17 23 1 55 -61
115 -46 45 -46 45 -26 62 12 9 21 24 21 33 0 9 4 14 9 11 4 -3 114 101 243
230 l235 236 26 -17 c14 -9 34 -14 45 -11 10 4 87 75 170 159 197 200 197 176
-6 380 -81 81 -157 150 -169 153 -14 4 -29 0 -38 -10 -9 -9 -20 -16 -24 -16
-4 0 -34 27 -65 60 -32 33 -62 60 -68 60 -5 0 -8 6 -5 14 3 8 -1 16 -8 18 -8
2 -98 86 -199 187 -145 144 -182 186 -173 196 109 112 120 134 82 159 -35 23
-49 14 -187 -122 l-117 -116 -92 93 c-81 80 -96 91 -118 86 -14 -3 -62 -42
-106 -86 -43 -43 -86 -79 -95 -79 -8 0 -63 48 -120 106 -119 119 -144 136
-177 121z m168 -153 l135 -135 101 104 101 105 101 -102 101 -101 133 133 c91
90 139 132 155 132 12 0 22 -3 22 -7 0 -5 -109 -117 -242 -250 -195 -195 -240
-245 -230 -255 10 -10 47 21 185 160 l172 173 405 -411 406 -412 -405 -409
-406 -410 -172 173 c-138 139 -175 170 -185 160 -10 -10 35 -60 231 -256 224
-224 258 -266 217 -266 -6 0 -74 62 -149 138 l-137 139 -103 -104 -102 -104
-101 105 -100 105 -140 -140 c-76 -76 -141 -139 -144 -139 -3 0 -12 5 -20 10
-12 7 36 60 233 256 219 219 258 264 227 264 -4 0 -84 -77 -177 -171 l-168
-170 -410 410 -410 411 409 410 410 409 167 -169 c92 -94 171 -170 177 -170 6
0 13 4 16 8 3 5 -105 119 -239 253 -135 134 -245 247 -245 252 0 4 10 7 22 7
16 0 65 -42 159 -136z m-643 -546 c10 -10 -20 -45 -140 -165 l-153 -153 152
-152 c132 -133 151 -155 141 -172 -9 -16 -28 -1 -169 140 -121 120 -159 165
-159 184 0 19 37 62 152 177 84 84 155 153 158 153 3 0 11 -5 18 -12z m2129
-140 c115 -115 153 -159 153 -177 0 -19 -39 -64 -155 -181 -135 -136 -157
-154 -169 -142 -13 13 6 35 140 167 l154 153 -155 153 c-119 118 -152 156
-143 166 6 7 13 13 17 13 3 0 74 -69 158 -152z"/>
<path d="M1527 1932 l-87 -87 88 -88 87 -87 88 88 87 87 -88 88 -87 87 -88
-88z m158 -27 c45 -45 54 -59 46 -73 -12 -23 -107 -112 -119 -112 -5 0 -35 27
-67 60 -57 60 -57 61 -39 82 40 45 100 98 111 98 7 0 37 -25 68 -55z"/>
<path d="M838 1517 l-378 -380 380 -381 380 -381 157 157 158 158 -225 225
-225 225 225 225 226 224 -156 156 c-85 85 -157 155 -160 154 -3 -1 -175 -172
-382 -382z m515 208 c70 -69 127 -131 127 -138 0 -14 -287 -307 -301 -307 -5
0 -9 -9 -9 -20 0 -12 -5 -17 -13 -14 -14 5 -87 -87 -87 -110 0 -9 81 -98 180
-198 99 -101 180 -188 180 -194 0 -6 10 -10 21 -10 12 1 24 -5 26 -12 3 -8 -1
-10 -14 -5 -17 6 -17 6 0 -14 15 -18 16 -24 6 -41 -7 -11 -19 -18 -26 -15 -17
7 -45 -16 -40 -32 7 -17 -17 -44 -39 -42 -10 1 -18 -3 -17 -10 2 -6 -25 -39
-58 -72 -48 -48 -64 -59 -77 -52 -32 18 -692 687 -692 702 0 17 340 359 357
359 6 0 9 9 6 21 -5 18 -3 20 16 14 14 -4 21 -2 21 7 0 12 288 308 300 308 4
0 63 -56 133 -125z"/>
<path d="M1380 695 c-13 -14 -21 -27 -18 -30 2 -3 17 9 33 25 16 17 24 30 19
30 -6 0 -21 -11 -34 -25z"/>
<path d="M1850 1745 l-155 -155 225 -225 225 -225 -225 -225 -225 -225 158
-157 157 -158 382 383 383 382 -380 380 c-209 209 -382 380 -385 380 -3 0 -75
-70 -160 -155z m461 -192 c16 -19 34 -31 39 -28 6 3 10 -3 10 -14 0 -11 8 -24
17 -29 9 -6 90 -83 179 -172 128 -128 161 -167 154 -179 -7 -14 -575 -587
-658 -665 -28 -26 -33 -27 -48 -15 -16 13 -16 12 -6 -8 25 -46 9 -34 -92 66
-58 58 -103 108 -100 113 3 4 -8 20 -25 34 -17 14 -31 30 -31 36 0 6 92 104
205 218 134 136 205 214 205 228 0 11 -11 34 -25 50 -14 17 -25 35 -25 42 0 7
-8 9 -22 5 -17 -6 -20 -4 -15 9 4 9 0 19 -10 24 -25 15 -313 306 -313 317 0
14 234 248 255 255 11 4 57 -35 146 -124 72 -72 144 -145 160 -163z"/>
<path d="M1601 1601 c-12 -8 -13 -12 -1 -26 12 -14 15 -14 28 -1 8 8 11 19 8
25 -9 13 -16 14 -35 2z"/>
<path d="M1355 1350 l-210 -210 205 -207 c113 -114 206 -209 207 -212 2 -2 10
2 18 9 14 12 -8 38 -182 212 l-198 198 198 198 c159 159 196 201 185 210 -11
9 -57 -31 -223 -198z"/>
<path d="M1653 1549 c-9 -9 38 -62 187 -212 l198 -199 -198 -199 c-154 -156
-194 -202 -184 -210 10 -8 60 37 221 200 l208 211 -210 210 c-115 116 -209
210 -210 210 -1 0 -6 -5 -12 -11z"/>
<path d="M1433 1321 l-182 -186 183 -182 182 -182 185 185 184 184 -185 183
-185 184 -182 -186z m352 -29 c77 -79 141 -146 143 -150 3 -10 -50 -61 -80
-76 -12 -6 -24 -20 -26 -31 -5 -26 -32 -56 -44 -49 -13 8 -40 -17 -34 -32 7
-18 -26 -45 -43 -35 -7 5 -12 13 -10 19 7 20 131 142 144 142 17 0 38 54 31
78 -6 17 -104 119 -199 206 -47 43 -64 36 -179 -76 -98 -96 -128 -133 -128
-156 0 -5 17 -29 38 -53 34 -39 44 -50 84 -86 7 -7 18 -18 24 -25 6 -7 23 -23
38 -35 14 -13 26 -30 26 -38 0 -24 -30 -4 -81 52 -23 27 -39 39 -35 28 4 -11
-31 18 -78 64 -47 47 -83 87 -80 90 3 3 37 -28 75 -68 39 -40 73 -70 77 -67 3
4 -24 36 -61 72 -37 36 -67 73 -67 82 0 9 66 83 147 164 122 122 150 145 162
135 8 -7 78 -76 156 -155z m-54 -37 l116 -116 -116 -114 -116 -115 -115 115
-115 115 115 115 c63 63 115 115 115 115 1 0 53 -52 116 -115z m-41 -350 c16
-20 -14 -53 -34 -36 -14 12 -36 -4 -36 -27 0 -12 3 -12 18 -1 16 12 16 12 0
-5 -18 -21 -45 -16 -55 10 -9 24 8 45 47 59 47 17 46 17 60 0z"/>
<path d="M1524 1223 l-81 -83 88 -88 88 -88 88 88 88 88 -85 85 c-47 47 -89
84 -95 83 -5 0 -46 -39 -91 -85z m157 -20 c56 -53 58 -57 45 -78 -22 -34 -98
-105 -111 -105 -7 0 -38 28 -70 62 l-58 61 61 59 c33 32 63 58 67 58 3 0 33
-25 66 -57z"/>
<path d="M1602 707 c-10 -11 -9 -17 3 -27 24 -20 45 4 24 26 -14 13 -17 13
-27 1z"/>
<path d="M1527 522 l-87 -87 88 -88 87 -87 88 88 87 87 -88 88 -87 87 -88 -88z
m158 -22 l59 -59 -19 -23 c-11 -13 -39 -42 -63 -66 l-44 -44 -52 49 c-87 80
-87 77 -20 144 32 33 63 59 69 59 6 0 37 -27 70 -60z"/>
</g>
</svg>
